<?xml version="1.0" encoding="iso-8859-1"?>
<!-- Generator: Adobe Illustrator 19.0.0, SVG Export Plug-In . SVG Version: 6.00 Build 0)  -->
<svg version="1.1" id="Layer_1" xmlns="http://www.w3.org/2000/svg" xmlns:xlink="http://www.w3.org/1999/xlink" x="0px" y="0px"
	 viewBox="0 0 512 512" style="enable-background:new 0 0 512 512;" xml:space="preserve">
<path style="fill:#333E48;" d="M512,495.762c0,2.427-1.984,4.413-4.412,4.413H4.413c-2.427,0-4.413-1.986-4.413-4.413V479.97
	c0-2.427,1.986-4.413,4.413-4.413h503.175c2.428,0,4.412,1.986,4.412,4.413V495.762z"/>
<path style="fill:#00AD68;" d="M507.588,475.558H272.386v24.618h235.202c2.428,0,4.412-1.986,4.412-4.413v-15.792
	C512,477.544,510.016,475.558,507.588,475.558z"/>
<rect x="39.641" y="68.042" style="fill:#D1D3D3;" width="247.155" height="407.522"/>
<rect x="39.641" y="68.042" style="opacity:0.1;enable-background:new    ;" width="247.155" height="56.391"/>
<rect x="70.555" y="314.137" style="fill:#FFFFFF;" width="185.339" height="50.248"/>
<rect x="70.555" y="314.137" style="opacity:0.2;enable-background:new    ;" width="185.339" height="18.496"/>
<rect x="155.026" y="314.137" style="fill:#333E48;" width="16.385" height="50.248"/>
<path style="fill:#0071CE;" d="M255.887,372.573H70.551c-4.525,0-8.193-3.668-8.193-8.193v-50.248c0-4.525,3.668-8.193,8.193-8.193
	h185.335c4.525,0,8.193,3.668,8.193,8.193v50.248C264.08,368.906,260.411,372.573,255.887,372.573z M78.744,356.188h168.95v-33.863
	H78.744V356.188z"/>
<rect x="70.555" y="231.304" style="fill:#FFFFFF;" width="185.339" height="50.248"/>
<rect x="70.555" y="231.304" style="opacity:0.2;enable-background:new    ;" width="185.339" height="18.496"/>
<rect x="155.026" y="231.304" style="fill:#333E48;" width="16.385" height="50.248"/>
<path style="fill:#0071CE;" d="M255.887,289.748H70.551c-4.525,0-8.193-3.668-8.193-8.193v-50.248c0-4.525,3.668-8.193,8.193-8.193
	h185.335c4.525,0,8.193,3.668,8.193,8.193v50.248C264.08,286.08,260.411,289.748,255.887,289.748z M78.744,273.363h168.95V239.5
	H78.744V273.363z"/>
<rect x="70.555" y="148.482" style="fill:#FFFFFF;" width="185.339" height="50.248"/>
<rect x="70.555" y="148.482" style="opacity:0.2;enable-background:new    ;" width="185.339" height="18.496"/>
<rect x="155.026" y="148.482" style="fill:#333E48;" width="16.385" height="50.248"/>
<path style="fill:#0071CE;" d="M255.887,206.923H70.551c-4.525,0-8.193-3.668-8.193-8.193v-50.248c0-4.525,3.668-8.193,8.193-8.193
	h185.335c4.525,0,8.193,3.668,8.193,8.193v50.248C264.08,203.255,260.411,206.923,255.887,206.923z M78.744,190.538h168.95v-33.863
	H78.744V190.538z"/>
<rect x="115.45" y="405.086" style="fill:#FFFFFF;" width="95.548" height="70.467"/>
<rect x="155.026" y="405.086" style="fill:#333E48;" width="16.385" height="70.467"/>
<path style="fill:#0071CE;" d="M219.185,475.558H202.8V413.28h-79.162v62.278h-16.385v-70.471c0-4.525,3.668-8.193,8.193-8.193
	h95.548c4.525,0,8.193,3.668,8.193,8.193V475.558z"/>
<path style="fill:#FF5959;" d="M294.512,47.963h-77.05V22.748c0-6.008-4.916-10.923-10.923-10.923h-86.64
	c-6.008,0-10.923,4.916-10.923,10.923v25.217h-77.05c-6.008,0-10.923,4.916-10.923,10.923v42.602
	c0,6.008,4.916,10.923,10.923,10.923h262.586c6.008,0,10.923-4.916,10.923-10.923V58.888
	C305.436,52.879,300.52,47.963,294.512,47.963z"/>
<path style="fill:#FFFFFF;" d="M189.667,49.528h-13.811V35.716c0-3.004-2.458-5.462-5.462-5.462h-14.351
	c-3.004,0-5.462,2.458-5.462,5.462v13.813H136.77c-3.004,0-5.462,2.458-5.462,5.462v14.351c0,3.004,2.458,5.462,5.462,5.462h13.812
	v13.811c0,3.004,2.458,5.462,5.462,5.462h14.351c3.004,0,5.462-2.458,5.462-5.462V74.802h13.811c3.004,0,5.462-2.458,5.462-5.462
	V54.989C195.128,51.985,192.671,49.528,189.667,49.528z"/>
<rect x="286.796" y="289.799" style="fill:#D1D3D3;" width="185.481" height="185.754"/>
<rect x="317.753" y="341.937" style="fill:#FFFFFF;" width="123.566" height="50.248"/>
<rect x="317.753" y="341.937" style="opacity:0.2;enable-background:new    ;" width="123.566" height="18.496"/>
<rect x="371.344" y="341.937" style="fill:#333E48;" width="16.385" height="50.248"/>
<path style="fill:#0071CE;" d="M441.32,400.38H317.754c-4.526,0-8.193-3.668-8.193-8.193v-50.248c0-4.525,3.667-8.193,8.193-8.193
	H441.32c4.526,0,8.193,3.668,8.193,8.193v50.248C449.512,396.712,445.845,400.38,441.32,400.38z M325.947,383.995h107.18v-33.863
	h-107.18V383.995z"/>
<path style="fill:#FF5959;" d="M286.797,257.85H482.26c6.008,0,10.923,4.916,10.923,10.923v20.937
	c0,6.008-4.916,10.923-10.923,10.923H286.797V257.85z"/>
<polygon style="opacity:0.2;enable-background:new    ;" points="307.484,300.634 307.484,257.85 286.797,257.85 286.797,475.558 
	307.484,475.558 307.484,321.48 472.277,321.48 472.277,300.634 "/>
<path style="fill:#218649;" d="M432.035,475.558c0-19.318-15.66-34.978-34.978-34.978c-19.317,0-34.979,15.66-34.979,34.978H432.035
	z"/>
<g>
</g>
<g>
</g>
<g>
</g>
<g>
</g>
<g>
</g>
<g>
</g>
<g>
</g>
<g>
</g>
<g>
</g>
<g>
</g>
<g>
</g>
<g>
</g>
<g>
</g>
<g>
</g>
<g>
</g>
</svg>
