<?xml version="1.0" encoding="iso-8859-1"?>
<!-- Generator: Adobe Illustrator 19.0.0, SVG Export Plug-In . SVG Version: 6.00 Build 0)  -->
<svg version="1.1" id="Layer_1" xmlns="http://www.w3.org/2000/svg" xmlns:xlink="http://www.w3.org/1999/xlink" x="0px" y="0px"
	 viewBox="0 0 509.287 509.287" style="enable-background:new 0 0 509.287 509.287;" xml:space="preserve">
<circle style="fill:#FBD303;" cx="254.644" cy="254.644" r="254.644"/>
<path style="fill:#FFFFFF;" d="M302.114,68.154H90.532c-5.764,0-10.511,4.747-10.511,10.511v351.279
	c0,5.764,4.747,10.511,10.511,10.511h211.581c5.764,0,10.511-4.747,10.511-10.511V79.004
	C312.625,72.901,307.878,68.154,302.114,68.154z"/>
<rect x="87.142" y="100.026" style="fill:#6EB1E1;" width="218.702" height="294.315"/>
<g>
	<path style="fill:#DEDEDF;" d="M211.581,83.073h-30.177c-1.356,0-2.713,1.017-2.713,2.713c0,1.356,1.017,2.713,2.713,2.713h30.177
		c1.356,0,2.713-1.017,2.713-2.713C213.955,84.09,212.938,83.073,211.581,83.073z"/>
	<circle style="fill:#DEDEDF;" cx="196.323" cy="417.06" r="15.597"/>
</g>
<path style="fill:#71D456;" d="M462.156,159.703H312.625v158.686h149.531c8.816,0,16.276-7.121,16.276-16.276V175.979
	C478.432,166.824,471.311,159.703,462.156,159.703z"/>
<rect x="312.625" y="187.507" style="fill:#4F5565;" width="165.807" height="51.539"/>
<g>
	<rect x="312.625" y="276.005" style="fill:#5BBA3C;" width="82.734" height="12.546"/>
	<rect x="422.146" y="276.005" style="fill:#5BBA3C;" width="22.379" height="12.546"/>
</g>
<rect x="107.825" y="253.287" style="fill:#FCFCFD;" width="176.996" height="117.997"/>
<rect x="122.405" y="330.935" style="fill:#71D456;" width="35.264" height="24.752"/>
<rect x="178.691" y="297.706" style="fill:#FBD303;" width="35.264" height="57.981"/>
<rect x="235.317" y="268.546" style="fill:#F0582F;" width="35.264" height="87.142"/>
<g>
	<rect x="107.825" y="123.083" style="fill:#5FA7D3;" width="176.996" height="16.275"/>
	<rect x="107.825" y="161.738" style="fill:#5FA7D3;" width="153.6" height="16.275"/>
	<rect x="107.825" y="200.053" style="fill:#5FA7D3;" width="91.889" height="16.276"/>
</g>
<g>
</g>
<g>
</g>
<g>
</g>
<g>
</g>
<g>
</g>
<g>
</g>
<g>
</g>
<g>
</g>
<g>
</g>
<g>
</g>
<g>
</g>
<g>
</g>
<g>
</g>
<g>
</g>
<g>
</g>
</svg>
