<?xml version="1.0" encoding="iso-8859-1"?>
<!-- Generator: Adobe Illustrator 19.0.0, SVG Export Plug-In . SVG Version: 6.00 Build 0)  -->
<svg version="1.1" id="Layer_1" xmlns="http://www.w3.org/2000/svg" xmlns:xlink="http://www.w3.org/1999/xlink" x="0px" y="0px"
	 viewBox="0 0 512 512" style="enable-background:new 0 0 512 512;" xml:space="preserve">
<path style="fill:#0096E6;" d="M477.081,256L477.081,256c-42.218,42.218-111.382,42.218-153.6,0l0,0
	c-41.319-43.116-41.319-114.077,0-158.091L399.832,0l77.249,97.011C517.502,138.33,517.502,209.291,477.081,256"/>
<path style="fill:#31B9F4;" d="M399.832,260.491c-21.558,0-42.218-8.084-57.488-23.354c-31.439-33.235-30.54-88.028,0-121.263
	l0.898-0.898c3.593-3.593,8.982-3.593,12.575-0.898c3.593,3.593,3.593,8.982,0,12.575l-0.898,0.898
	c-25.151,26.947-25.151,70.063-0.898,97.011c11.677,11.677,27.846,17.965,44.912,17.965c5.389,0,8.982,3.593,8.982,8.982
	S405.221,260.491,399.832,260.491"/>
<path style="fill:#0096E6;" d="M254.316,468.884L254.316,468.884c-57.488,57.488-149.109,57.488-206.596,0l0,0
	c-57.488-57.488-57.488-149.109,0-206.596l100.604-118.568l105.993,118.568C316.295,319.775,318.091,412.295,254.316,468.884"/>
<path style="fill:#31B9F4;" d="M151.018,485.053c-31.439,0-61.979-12.575-84.435-35.032c-22.456-22.456-35.032-52.098-35.032-84.435
	c0-31.439,12.575-61.979,35.032-84.435l0.898-0.898c3.593-3.593,8.982-3.593,12.575,0c3.593,3.593,3.593,8.982,0,12.575
	l-0.898,0.898c-18.863,18.863-29.642,44.912-29.642,71.86c0,26.947,10.779,52.098,29.642,71.86
	c18.863,18.863,44.912,29.642,71.86,29.642c5.389,0,8.982,3.593,8.982,8.982C160,481.46,155.509,485.053,151.018,485.053"/>
<g>
</g>
<g>
</g>
<g>
</g>
<g>
</g>
<g>
</g>
<g>
</g>
<g>
</g>
<g>
</g>
<g>
</g>
<g>
</g>
<g>
</g>
<g>
</g>
<g>
</g>
<g>
</g>
<g>
</g>
</svg>
