<?xml version="1.0" encoding="iso-8859-1"?>
<!-- Generator: Adobe Illustrator 19.0.0, SVG Export Plug-In . SVG Version: 6.00 Build 0)  -->
<svg version="1.1" id="Layer_1" xmlns="http://www.w3.org/2000/svg" xmlns:xlink="http://www.w3.org/1999/xlink" x="0px" y="0px"
	 viewBox="0 0 504 504" style="enable-background:new 0 0 504 504;" xml:space="preserve">
<circle style="fill:#84DBFF;" cx="252" cy="252" r="252"/>
<path style="fill:#ACB3BA;" d="M188.5,137.6c0.5,1,0.9,2.1,1.4,3.1l0.1,0.1c3.2,7.2,6.4,14.3,9.7,21.4c4.4-1.9,8.9-3.7,13.4-5.1
	c25.4-8.2,52.7-8.2,78,0c4.5,1.5,9,3.2,13.4,5.1c3.3-7.1,6.5-14.2,9.7-21.4c0-0.1,0.1-0.1,0.1-0.1c0.5-1,0.9-2.1,1.4-3.1
	C275.1,119.4,228.9,119.4,188.5,137.6z"/>
<path style="fill:#CED5E0;" d="M213,157c17.9,8.6,39,15,39,15s21.1-6.4,39-15C265.6,148.9,238.4,148.9,213,157z"/>
<path style="fill:#324A5E;" d="M252,131.9c1.5,0,2.7-1.2,2.7-2.7v-8.1c0-14-6.3-27.6-17.4-37.5c-5.1-4.6-7.8-11.1-7.4-17.9
	c0.7-11.1,9.6-20,20.7-20.7c6.2-0.4,12.1,1.7,16.6,6c4.5,4.2,7,10,7,16.1c0,1.5,1.2,2.7,2.7,2.7s2.7-1.2,2.7-2.7
	c0-7.5-3.2-14.8-8.7-20c-5.6-5.2-12.9-7.9-20.5-7.4c-13.8,0.9-24.8,11.9-25.6,25.6c-0.5,8.5,2.8,16.6,9.1,22.2
	c9.9,8.9,15.6,21.1,15.6,33.5v8.1C249.3,130.7,250.5,131.9,252,131.9z"/>
<path style="fill:#FFD05B;" d="M96.5,205.3c1.1,2.1,3.3,3.3,5.5,3.3h300c3.4,0,6.2-2.8,6.2-6.2c0-2.4-1.3-4.4-3.3-5.5l-150-81.7
	c-1.9-1-4.2-1-6,0l-150,81.7C96,198.5,94.8,202.3,96.5,205.3z M252,142.8l120.5,53.3h-241L252,142.8z"/>
<path style="fill:#FF7058;" d="M27.8,246l66,68.7l38.4-30.2v189.3C167.9,493.1,208.6,504,252,504c43.3,0,84.1-10.9,119.7-30.2V284.5
	l38.4,30.2l66-68.7l-77-73.2c-6.7-6.4-15.3-10.7-24.5-12.4l-61.8-11c0.2,3.3-1.8,6.6-6,6.6c-0.6,0-1.1,0-1.5-0.2
	c-5.9,19-27.6,33.1-53.4,33.3c-26.1-0.2-47.9-14.6-53.6-33.9c-0.8,0.5-1.9,0.8-3.1,0.8c-4.1,0-6.1-3.2-6.1-6.3l-60,10.7
	c-9.2,1.7-17.7,5.9-24.5,12.4L27.8,246z"/>
<polygon style="fill:#324A5E;" points="390.9,299.5 410.2,314.7 476.2,246 458.5,229.2 "/>
<g>
	<polygon style="fill:#E6E9EE;" points="390.9,299.5 410.2,314.7 476.2,246 458.5,229.2 	"/>
	<polygon style="fill:#E6E9EE;" points="27.8,246 93.8,314.7 113.1,299.5 45.5,229.2 	"/>
</g>
<rect x="235.9" y="172.1" style="fill:#F1543F;" width="32.1" height="107.3"/>
<g>
	<path style="fill:#E6E9EE;" d="M195.4,189.7l26.9,29l29.6-46.6c0,0-21.1-6.4-39-15c-10.2-5-19.5-10.6-23-16.3l-0.1-0.1
		c-0.7-1-1.1-2.1-1.4-3.1l-3.5,8.6C179.3,160.2,182.5,175.7,195.4,189.7z"/>
	<path style="fill:#E6E9EE;" d="M252,172.1l29.6,46.6l27-29c13-14,16.2-29.4,10.4-43.5l-3.5-8.6c-0.2,1-0.7,2.1-1.4,3.1
		c0,0.1-0.1,0.1-0.1,0.1c-3.6,5.6-12.9,11.3-23.1,16.2C273.1,165.7,252,172.1,252,172.1z"/>
	<circle style="fill:#E6E9EE;" cx="252" cy="232.3" r="8.3"/>
	<circle style="fill:#E6E9EE;" cx="252" cy="263.6" r="8.3"/>
</g>
<g>
</g>
<g>
</g>
<g>
</g>
<g>
</g>
<g>
</g>
<g>
</g>
<g>
</g>
<g>
</g>
<g>
</g>
<g>
</g>
<g>
</g>
<g>
</g>
<g>
</g>
<g>
</g>
<g>
</g>
</svg>
