<?xml version="1.0" encoding="iso-8859-1"?>
<!-- Generator: Adobe Illustrator 19.0.0, SVG Export Plug-In . SVG Version: 6.00 Build 0)  -->
<svg version="1.1" id="Layer_1" xmlns="http://www.w3.org/2000/svg" xmlns:xlink="http://www.w3.org/1999/xlink" x="0px" y="0px"
	 viewBox="0 0 512 512" style="enable-background:new 0 0 512 512;" xml:space="preserve">
<g>
	<path style="fill:#06344C;" d="M495.367,59.716C470.172,29.407,348.242,3.775,256,3.775S41.828,29.407,16.633,59.716
		c-18.822,22.644-16.547,77.2-16.547,77.2s29.069,3.484,59.463,3.484s59.463-3.484,59.463-3.484V89.486h273.977v47.431
		c0,0,29.069,3.484,59.463,3.484c30.393,0,59.463-3.484,59.463-3.484S514.189,82.36,495.367,59.716z"/>
	<polygon style="fill:#06344C;" points="470.607,349.241 470.607,499.689 41.392,499.689 41.392,349.241 256,303.73 	"/>
</g>
<path style="fill:#0278AA;" d="M343.631,117.202l126.976,232.038H41.392l126.976-232.038V68.926c0-3.277,2.651-5.939,5.928-5.939
	h22.426c3.277,0,5.928,2.662,5.928,5.939v48.276H309.35V68.926c0-3.277,2.651-5.939,5.928-5.939h22.426
	c3.277,0,5.928,2.662,5.928,5.939V117.202z"/>
<path style="fill:#0A547B;" d="M481.497,508.225H30.502c-4.713,0-8.533-3.821-8.533-8.533s3.821-8.533,8.533-8.533h450.996
	c4.713,0,8.533,3.821,8.533,8.533S486.21,508.225,481.497,508.225z"/>
<circle style="fill:#06344C;" cx="256" cy="233.221" r="83.365"/>
<g>
	<circle style="fill:#FFFFFF;" cx="256" cy="191.818" r="8.533"/>
	<circle style="fill:#FFFFFF;" cx="220.148" cy="212.514" r="8.533"/>
	<circle style="fill:#FFFFFF;" cx="220.148" cy="253.918" r="8.533"/>
	<circle style="fill:#FFFFFF;" cx="256" cy="274.625" r="8.533"/>
	<circle style="fill:#FFFFFF;" cx="291.851" cy="253.918" r="8.533"/>
	<circle style="fill:#FFFFFF;" cx="291.851" cy="212.514" r="8.533"/>
	<path style="fill:#FFFFFF;" d="M402.337,403.283H109.662c-4.713,0-8.533-3.821-8.533-8.533s3.821-8.533,8.533-8.533h292.675
		c4.713,0,8.533,3.821,8.533,8.533S407.05,403.283,402.337,403.283z"/>
</g>
<g>
	<circle style="fill:#FFCE78;" cx="128.159" cy="447.215" r="18.497"/>
	<circle style="fill:#FFCE78;" cx="213.39" cy="447.215" r="18.497"/>
	<circle style="fill:#FFCE78;" cx="298.61" cy="447.215" r="18.497"/>
	<circle style="fill:#FFCE78;" cx="383.841" cy="447.215" r="18.497"/>
</g>
<g>
</g>
<g>
</g>
<g>
</g>
<g>
</g>
<g>
</g>
<g>
</g>
<g>
</g>
<g>
</g>
<g>
</g>
<g>
</g>
<g>
</g>
<g>
</g>
<g>
</g>
<g>
</g>
<g>
</g>
</svg>
