<?xml version="1.0" encoding="iso-8859-1"?>
<!-- Generator: Adobe Illustrator 19.0.0, SVG Export Plug-In . SVG Version: 6.00 Build 0)  -->
<svg version="1.1" id="Layer_1" xmlns="http://www.w3.org/2000/svg" xmlns:xlink="http://www.w3.org/1999/xlink" x="0px" y="0px"
	 viewBox="0 0 512.662 512.662" style="enable-background:new 0 0 512.662 512.662;" xml:space="preserve">
<path style="fill:#F0C419;" d="M358.29,470.51l-4.414,4.414c-55.614,50.317-139.476,50.317-195.09,0l-4.414-4.414
	c-70.621-63.559-87.393-166.841-41.49-249.821L224.11,18.538c14.124-24.717,49.434-24.717,63.559,0l112.11,202.152
	C445.683,303.669,428.91,406.952,358.29,470.51"/>
<path style="fill:#E57E25;" d="M227.641,507.586c-8.828-3.531-17.655-8.828-24.717-15.007l-4.414-3.531
	c-45.903-42.372-56.497-109.462-26.483-163.31l68.855-123.586c6.179-10.593,21.186-10.593,27.366,0l68.855,123.586
	c30.014,53.848,18.538,121.821-27.366,162.428l-4.414,4.414C284.138,511.117,255.007,517.297,227.641,507.586"/>
<path style="fill:#AC5F1C;" d="M255.89,512c-2.648,0-4.414,0-7.062-0.883s-5.297-2.648-7.945-5.297l-4.414-3.531
	c-27.366-24.717-34.428-64.441-15.89-97.103l27.366-57.379c2.648-5.297,9.71-5.297,12.359,0l30.897,57.379
	c17.655,32.662,11.476,72.386-15.89,97.103l-4.414,4.414C266.483,510.234,261.186,512,255.89,512"/>
<g>
</g>
<g>
</g>
<g>
</g>
<g>
</g>
<g>
</g>
<g>
</g>
<g>
</g>
<g>
</g>
<g>
</g>
<g>
</g>
<g>
</g>
<g>
</g>
<g>
</g>
<g>
</g>
<g>
</g>
</svg>
