<?xml version="1.0" encoding="iso-8859-1"?>
<!-- Generator: Adobe Illustrator 18.0.0, SVG Export Plug-In . SVG Version: 6.00 Build 0)  -->
<!DOCTYPE svg PUBLIC "-//W3C//DTD SVG 1.1//EN" "http://www.w3.org/Graphics/SVG/1.1/DTD/svg11.dtd">
<svg version="1.1" id="Capa_1" xmlns="http://www.w3.org/2000/svg" xmlns:xlink="http://www.w3.org/1999/xlink" x="0px" y="0px"
	 viewBox="0 0 203.118 203.118" style="enable-background:new 0 0 203.118 203.118;" xml:space="preserve">
<g>
	<g>
		<rect x="86.861" y="152.853" style="fill:#FDCC9B;" width="29.395" height="32.923"/>
		<path style="fill:#FCBC85;" d="M86.862,156.73c0,0,12.364,7.874,29.394,6.051v-9.929H86.862V156.73z"/>
		<ellipse style="fill:#FCBC85;" cx="44.475" cy="101.803" rx="14.343" ry="16.364"/>
		<ellipse style="fill:#FCBC85;" cx="158.643" cy="101.803" rx="14.343" ry="16.364"/>
		<path style="fill:#FDCC9B;" d="M158.585,70.547c0-24.103-17.637-41.74-57.025-41.74c-39.39,0-57.026,17.637-57.026,41.74
			c0,24.104-4.115,87.597,57.026,87.597C162.7,158.144,158.585,94.651,158.585,70.547z"/>
		<g>
			<g>
				<ellipse style="fill:#3B2519;" cx="73.783" cy="97.885" rx="6.173" ry="6.761"/>
				<circle style="fill:#FFFFFF;" cx="71.092" cy="94.899" r="1.846"/>
			</g>
			<path style="fill:#4C2D19;" d="M63.908,81.129c2.919,1.46,7.606-4.96,18.335,0.625c1.956,1.018,3.123-8.708-8.377-8.708
				C63.908,73.046,62.145,80.248,63.908,81.129z"/>
			<g>
				<ellipse style="fill:#3B2519;" cx="130.098" cy="97.885" rx="6.173" ry="6.761"/>
				<circle style="fill:#FFFFFF;" cx="127.406" cy="94.899" r="1.846"/>
			</g>
			<path style="fill:#4C2D19;" d="M139.21,81.129c-2.919,1.46-7.607-4.96-18.335,0.625c-1.956,1.018-3.123-8.708,8.377-8.708
				C139.21,73.046,140.974,80.248,139.21,81.129z"/>
		</g>
		<path style="fill:#FCBC85;" d="M101.56,121.665c-6.1,0-9.774-4.557-9.774-2.352c0,2.204,1.764,6.394,9.774,6.394
			c8.01,0,9.773-4.189,9.773-6.394C111.333,117.108,107.658,121.665,101.56,121.665z"/>
		<path style="fill:#FCBC85;" d="M101.56,141.936c-2.11,0-3.381-1.576-3.381-0.813s0.609,2.212,3.381,2.212
			c2.77,0,3.38-1.449,3.38-2.212S103.669,141.936,101.56,141.936z"/>
		<path style="fill:#F7945E;" d="M101.56,136.318c-9.669,0-15.493-3.938-15.493-2.939c0,0.997,2.796,4.924,15.493,4.924
			c12.696,0,15.492-3.927,15.492-4.924C117.052,132.381,111.228,136.318,101.56,136.318z"/>
	</g>
	<path style="fill:#F6A4B7;" d="M101.56,166.08v37.038H30.132C30.132,188.127,67.755,166.08,101.56,166.08z"/>
	<path style="fill:#F6A4B7;" d="M101.56,166.08v37.038h71.427C172.986,188.127,135.363,166.08,101.56,166.08z"/>
	<path style="fill:#FDCC9B;" d="M86.861,167.362c0,0,4.299,5.332,14.697,5.332c10.398,0,14.697-5.332,14.697-5.332
		S101.008,161.811,86.861,167.362z"/>
	<path style="fill:#665853;" d="M80.836,203.118l-3.04-33.805c0,0-6.456-0.891-14.215,4.746l-6.445,29.059H80.836z"/>
	<polygon style="fill:#665853;" points="101.559,172.694 101.559,203.118 91.418,203.118 93.402,189.119 87.56,182.945 	"/>
	<path style="fill:#665853;" d="M122.282,203.118l3.04-33.805c0,0,6.456-0.891,14.215,4.746l6.444,29.059H122.282z"/>
	<polygon style="fill:#665853;" points="101.56,172.694 101.56,203.118 111.7,203.118 109.716,189.119 115.559,182.945 	"/>
	<path style="fill:#F2788F;" d="M116.256,163.729l-14.697,8.966l15.493,15.433l11.51-17.912
		C128.562,170.215,121.033,162.807,116.256,163.729z"/>
	<path style="fill:#F2788F;" d="M86.861,163.729l14.697,8.966l-15.492,15.433l-11.51-17.912
		C74.557,170.215,82.085,162.807,86.861,163.729z"/>
	<path style="fill:#4C2D19;" d="M164.611,28.659c-1.384-2.727-5.291-3.086-7.349-4.262c-2.059-1.176-2.059-6.173-5.879-8.23
		c-3.821-2.058-4.41,1.176-7.084,0.588c-2.675-0.588-5.263-5.879-8.792-7.055c-3.53-1.177-6.759,1.176-9.404,0.587
		c-2.645-0.587-4.409-6.173-9.052-5.878c-4.643,0.294-4.764,3.527-5.719,3.233C110.378,7.349,107.291,0,101.56,0
		c-5.732,0-8.819,7.349-9.774,7.643c-0.955,0.294-1.076-2.939-5.719-3.233c-4.643-0.295-6.406,5.291-9.052,5.878
		c-2.646,0.589-5.874-1.764-9.404-0.587c-3.529,1.176-6.117,6.467-8.792,7.055c-2.674,0.588-3.262-2.646-7.084-0.588
		c-3.82,2.058-3.82,7.055-5.878,8.23c-2.059,1.176-5.965,1.535-7.35,4.262c-4.997,9.848,3.944,79.298,7.8,79.298
		c3.855,0,1.607-35.353,7.486-48.874c5.878-13.521,28.513-1.764,47.767-1.764c19.253,0,41.887-11.758,47.767,1.764
		c5.878,13.521,3.63,48.874,7.485,48.874C160.667,107.957,169.608,38.507,164.611,28.659z"/>
</g>
<g>
</g>
<g>
</g>
<g>
</g>
<g>
</g>
<g>
</g>
<g>
</g>
<g>
</g>
<g>
</g>
<g>
</g>
<g>
</g>
<g>
</g>
<g>
</g>
<g>
</g>
<g>
</g>
<g>
</g>
</svg>
