<?xml version="1.0" encoding="iso-8859-1"?>
<!-- Generator: Adobe Illustrator 19.0.0, SVG Export Plug-In . SVG Version: 6.00 Build 0)  -->
<svg version="1.1" id="Layer_1" xmlns="http://www.w3.org/2000/svg" xmlns:xlink="http://www.w3.org/1999/xlink" x="0px" y="0px"
	 viewBox="0 0 280.027 280.027" style="enable-background:new 0 0 280.027 280.027;" xml:space="preserve">
<g>
	<path style="fill:#3CAED6;" d="M245.023,175.017c0-56.005-96.259-165.391-104.135-174.142l0,0l0,0l0,0
		c0,0-105.885,116.386-105.885,174.142s47.255,105.01,105.01,105.01c3.5,0,7.876,0,11.376-0.875c0.875,0,1.75,0,2.625-0.875
		c2.625,0,5.251-0.875,7.876-0.875c0.875,0,1.75-0.875,3.5-0.875c2.625-0.875,5.251-0.875,7.876-1.75
		c0.875,0,1.75-0.875,2.625-0.875c2.625-0.875,5.251-1.75,7.876-2.625c0.875,0,1.75-0.875,1.75-0.875
		c2.625-0.875,5.251-2.625,7.876-4.375c0.875,0,0.875-0.875,1.75-0.875c2.625-1.75,5.251-3.5,7.876-5.251c0,0,0.875,0,0.875-0.875
		c2.625-1.75,5.251-4.375,7.876-6.126l0,0C231.897,232.773,245.023,205.645,245.023,175.017z"/>
	<path style="fill:#63BFDE;" d="M183.768,140.014c-9.626,0-17.502,7.876-17.502,17.502c0,9.626,7.876,17.502,17.502,17.502
		c9.626,0,17.502-7.876,17.502-17.502C201.27,147.889,193.393,140.014,183.768,140.014z"/>
	<path style="fill:#369DC0;" d="M148.764,271.276c-57.756,0-105.01-47.255-105.01-105.01c0-48.13,71.757-136.513,97.134-165.391
		L140.014,0c0,0-105.01,117.261-105.01,175.017s47.255,105.01,105.01,105.01c31.503,0,59.506-14.001,78.758-35.003
		C199.518,260.775,175.891,271.276,148.764,271.276z"/>
</g>
<g>
</g>
<g>
</g>
<g>
</g>
<g>
</g>
<g>
</g>
<g>
</g>
<g>
</g>
<g>
</g>
<g>
</g>
<g>
</g>
<g>
</g>
<g>
</g>
<g>
</g>
<g>
</g>
<g>
</g>
</svg>
